#!OML:ASF F:\VICON\USERDATA\INSTALL\rory3\rory3.ASF
:FULLY-SPECIFIED
:DEGREES
102
root 0.3009976752274046 17.790151196989804 42.71404914060258 -4.630620651756938 -2.8884139275998706 -1.5100122658229211
lfemur -12.086271434476918 -2.3479433243810326 -22.863894600048802
ltibia 39.09820047225478
lfoot -7.568898432287297 -1.427506067866639
ltoes -2.9773235032974954
rfemur -13.03432440526093 3.2546393865705303 23.397496822427968
rtibia 43.08137605716511
rfoot -5.215381362252038 -4.98283220631856
rtoes 5.593900042890966
lowerback 10.4352861210602 1.0331841808923437 0.7759864008389142
upperback 0.6045097302720026 0.9994925960633056 0.8874214962497906
thorax -5.162488104122277 0.7669749103017793 0.8360235052154728
lowerneck -15.89351846921265 -2.8385076754551695 -1.9512519353677775
upperneck 20.831187361203085 -3.52375801182864 0.9484755559348482
head 9.284121850393174 -1.7270166491335746 0.13824335911219277
lclavicle -1.3879679699872362e-15 -1.8442003054902824e-15
lhumerus -31.89639180344409 5.094970952015482 80.52852627835905
lradius 23.86859769505198
lwrist 4.613529376859438
lhand -27.453317957190983 23.66624410659244
lfingers 7.125019999999999
lthumb -0.5381073003945085 54.11074653061187
rclavicle -1.388973382687349e-15 -1.84513455421548e-15
rhumerus -28.470123977956884 -21.067387426288573 -79.87247069640063
rradius 24.74547304446176
rwrist 5.0775725244869525
rhand -18.355241871874696 22.74120403882986
rfingers 7.125019999999999
rthumb 8.020442698122164 -6.939278236826046
103
root 0.30509073172581724 17.789612644296906 43.366447059353895 -4.609464677279023 -2.369781311843136 -1.0417062911210393
lfemur -9.302500087435028 -2.7921121956580732 -23.644581585829727
ltibia 38.79064333237793
lfoot -8.874992159324169 -2.331617299420891
ltoes -3.537961184739488
rfemur -15.203954881500955 3.0604450738042717 22.829150201622614
rtibia 41.34948480793149
rfoot -5.2138402530101935 -4.967474380963091
rtoes 5.375112754458154
lowerback 10.499759103667 0.8237270041854858 0.30651441446886163
upperback 0.7015700108492785 0.7769472495879086 0.9919506924530281
thorax -5.14737072831722 0.6281630764146826 1.119884079367962
lowerneck -15.929647320609076 -2.8584786489266665 -1.993801680682577
upperneck 20.810356912235257 -3.5246948283062625 0.9701859539761675
head 9.297794536771592 -1.7197099411265837 0.1426095606998523
lclavicle -1.3879679699872362e-15 -1.8442003054902824e-15
lhumerus -30.282717769467798 3.52703027837197 80.8546977041698
lradius 23.774460188245595
lwrist 4.78583467705123
lhand -27.614938823985234 23.385961954172707
lfingers 7.125019999999999
lthumb -0.6016184869831214 54.00518079642155
rclavicle -1.388973382687349e-15 -1.84513455421548e-15
rhumerus -29.40519106500225 -21.507756140288166 -79.53472419901756
rradius 24.904409894790703
rwrist 4.997694492695739
rhand -18.344706888364087 22.747571995008148
rfingers 7.125019999999999
rthumb 7.985861921185389 -6.995216260800912
104
root 0.30063397445385026 17.77851798811988 44.14160913969809 -4.455783930047485 -1.8537443248192613 -0.5616163240780869
lfemur -7.378234265084824 -3.3355955747328396 -24.490598855088074
ltibia 37.48439396690451
lfoot -7.871763471631292 -1.148366857208187
ltoes -4.3317627395134926
rfemur -17.493919256073664 2.996309249281479 22.10019089116853
rtibia 39.87913012523238
rfoot -5.473412867922305 -5.012123222253013
rtoes 5.2100721576070095
lowerback 10.555486975773249 0.6378274360468286 -0.0346459680330492
upperback 0.7451671546393959 0.4177135706331153 1.0311379182966232
thorax -5.0984822021340985 0.5163458023787326 1.4366474391204496
lowerneck -15.948643771909111 -2.8625480066020774 -2.0130992565264654
upperneck 20.741277498189525 -3.5568560323578335 0.9432761361767757
head 9.289086597477748 -1.728367650307312 0.13052057384184107
lclavicle -1.3879679699872362e-15 -1.8442003054902824e-15
lhumerus -28.770962974744066 1.9049728959277408 81.05302382385872
lradius 23.648063813201162
lwrist 4.820564331817019
lhand -27.49006436231491 23.623789448325994
lfingers 7.125019999999999
lthumb -0.524866537306676 54.15035839180051
rclavicle -1.388973382687349e-15 -1.84513455421548e-15
rhumerus -30.3133775991862 -21.795685230531305 -79.22770349464332
rradius 24.99760146182205
rwrist 4.927413472332903
rhand -18.387315730493995 22.702090933517017
rfingers 7.125019999999999
rthumb 7.961393798074663 -7.042326979493115
105
root 0.28789303606842864 17.76227854205218 44.98459692178873 -4.179618625669122 -1.3665612336295307 -0.08385578639641
lfemur -5.306804453350435 -3.729510510870135 -25.5311063898438
ltibia 35.79612715329135
lfoot -9.246069174358494 -2.3165965329427802
ltoes -4.898600624168082
rfemur -19.60767595852123 3.087759374672338 21.399739470675073
rtibia 38.74137068451045
rfoot -6.0335736538411755 -5.230398680078634
rtoes 4.744196101021375
lowerback 10.544578991131658 0.4176069185805909 -0.48369417828783723
upperback 0.8115998159488431 0.2861974942831514 1.1659083001184045
thorax -5.034568025821726 0.4118300591839927 1.7174704769490594
lowerneck -15.99577479554587 -2.872688244411055 -2.0440624274150645
upperneck 20.79061891705366 -3.539878519061743 0.9921509816099675
head 9.304154622582914 -1.7260013774869642 0.13904334318708617
lclavicle -1.3879679699872362e-15 -1.8442003054902824e-15
lhumerus -27.191428697542495 0.5654655656070258 81.18199744567163
lradius 23.530941516061596
lwrist 4.605938785485635
lhand -27.582794273979033 23.416925726746346
lfingers 7.125019999999999
lthumb -0.5296988215403223 54.133733960266795
rclavicle -1.388973382687349e-15 -1.84513455421548e-15
rhumerus -31.132163583353996 -21.965170700986423 -78.91702290284474
rradius 24.954976864902616
rwrist 5.069587219318177
rhand -18.30510649495192 22.81961037531982
rfingers 7.125019999999999
rthumb 7.977921261101447 -7.020108812946238
